<svg id="Capa_1" enable-background="new 0 0 512 512" height="512" viewBox="0 0 512 512" width="512" xmlns="http://www.w3.org/2000/svg"><g><path d="m240.553 481.09c0 16.89-13.68 30.91-30.91 30.91h-33.38c-239.66-67.99-80.31-302.55-80.31-302.55h5.08c17.07 0 30.91 13.84 30.91 30.91v155.34c0 8.53 6.92 15.45 15.45 15.45h62.25c17.07 0 30.91 13.84 30.91 30.91 11.96-.63 21.84 6.33 23.67 14.38 2.29 10.05-7.44 23.93-23.67 24.65z" fill="#a0e7d7"/><path d="m176.263 512h-122.02c-17.07 0-30.91-13.84-30.91-30.91v-240.73c0-17.07 13.84-30.91 30.91-30.91h41.71c-15.45 56.61-46.99 221.46 80.31 302.55z" fill="#73d8bb"/><path d="m364.669 131.756v39.028c0 17.072-13.837 30.909-30.909 30.909h-134.228c-9.345-8.045-37.519-34.407-44.316-77.572-11.287-71.678 47.116-121.461 50.344-124.121h19.596c17.004 0 30.909 13.785 30.909 30.909v54.483c0 8.591 6.974 15.455 15.455 15.455h62.241c17.072 0 30.908 13.836 30.908 30.909z" fill="#a78cd6"/><path d="m199.532 201.693h-21.162c-17.072 0-30.909-13.837-30.909-30.909v-54.482c0-8.531-6.924-15.455-15.455-15.455h-62.241c-17.072 0-30.909-13.837-30.909-30.909v-39.029c0-17.072 13.837-30.909 30.909-30.909h135.795c-32.996 34.197-36.72 154.021-6.028 201.693z" fill="#8d6ac9"/><path d="m488.667 318.066v163.024c0 17.072-13.837 30.909-30.909 30.909h-107.296c-46.068-17.083-77.338-60.227-78.882-108.606-1.628-51.011 30.103-98.073 78.717-116.237h107.461c17.072.001 30.909 13.837 30.909 30.91z" fill="#f8ec7f"/><path d="m350.462 511.999h-79.004c-17.072 0-30.909-13.836-30.909-30.909v-163.024c0-17.072 13.837-30.909 30.909-30.909h78.839c-23.347 17.268-39.924 61.056-39.924 112.354-.001 51.423 16.649 95.303 40.089 112.488z" fill="#f7cf71"/><g fill="#495560"><path d="m294.852 382.46c-4.268 0-7.727 3.459-7.727 7.727v12.364c0 4.268 3.46 7.727 7.727 7.727s7.727-3.459 7.727-7.727v-12.364c.001-4.268-3.459-7.727-7.727-7.727z"/><path d="m432.405 380.152c-12.161 0-22.055 9.894-22.055 22.055 0 4.268 3.46 7.727 7.727 7.727s7.727-3.459 7.727-7.727c0-3.639 2.961-6.6 6.6-6.6s6.6 2.961 6.6 6.6c0 4.268 3.46 7.727 7.727 7.727 4.268 0 7.727-3.459 7.727-7.727.002-12.162-9.892-22.055-22.053-22.055z"/><path d="m392.223 402.946c-4.268 0-7.727 3.459-7.727 7.727 0 3.951-3.215 7.166-7.167 7.166s-7.166-3.215-7.166-7.166c0-4.268-3.46-7.727-7.727-7.727s-7.727 3.459-7.727 7.727c0 3.951-3.215 7.166-7.166 7.166-3.952 0-7.167-3.215-7.167-7.166 0-4.268-3.46-7.727-7.727-7.727s-7.727 3.459-7.727 7.727c0 19.412 22.978 29.752 37.515 17.004 14.537 12.748 37.515 2.408 37.515-17.004-.002-4.268-3.461-7.727-7.729-7.727z"/></g></g></svg>